<?xml version="1.0" standalone="no"?>
<!DOCTYPE svg PUBLIC "-//W3C//DTD SVG 20010904//EN"
 "http://www.w3.org/TR/2001/REC-SVG-20010904/DTD/svg10.dtd">
<svg version="1.0" xmlns="http://www.w3.org/2000/svg"
 width="1032.000000pt" height="1032.000000pt" viewBox="0 0 1032.000000 1032.000000"
 preserveAspectRatio="xMidYMid meet">
<metadata>
Created by potrace 1.11, written by Peter Selinger 2001-2013
</metadata>
<g transform="translate(0.000000,1032.000000) scale(0.100000,-0.100000)"
fill="#000000" stroke="none">
<path d="M6977 8524 c-3 -4 -39 -8 -79 -9 -108 -5 -168 -16 -288 -52 -237 -72
-337 -136 -724 -466 -27 -23 -60 -51 -74 -62 -22 -18 -212 -177 -356 -299 -80
-67 -96 -80 -211 -176 -60 -51 -121 -102 -135 -114 -14 -11 -93 -77 -175 -145
-83 -69 -152 -127 -155 -131 -3 -3 -43 -37 -90 -75 -47 -38 -90 -74 -96 -80
-6 -5 -30 -26 -53 -45 -23 -19 -52 -43 -64 -53 -12 -11 -42 -35 -66 -55 -24
-21 -53 -45 -65 -56 -11 -10 -36 -30 -55 -45 -19 -14 -44 -35 -56 -46 -12 -11
-43 -38 -69 -60 -27 -22 -57 -47 -66 -55 -10 -8 -37 -31 -60 -50 -24 -19 -48
-40 -54 -45 -6 -6 -33 -28 -61 -50 -27 -22 -52 -43 -55 -46 -3 -3 -34 -30 -70
-60 -72 -59 -107 -89 -124 -104 -6 -6 -36 -30 -66 -55 -30 -25 -57 -47 -60
-50 -3 -3 -59 -50 -125 -105 -66 -55 -125 -104 -131 -110 -6 -5 -25 -21 -43
-35 -18 -14 -40 -32 -49 -41 -10 -8 -87 -74 -172 -144 -85 -71 -157 -132 -160
-135 -3 -3 -41 -35 -85 -70 -43 -36 -86 -72 -95 -80 -25 -23 -70 -61 -125
-105 -28 -22 -54 -44 -60 -50 -5 -7 -48 -43 -95 -81 -47 -38 -87 -71 -90 -74
-3 -3 -32 -28 -65 -56 -83 -68 -115 -96 -137 -117 -10 -9 -21 -17 -24 -17 -3
0 -11 -6 -18 -12 -7 -7 -37 -33 -66 -58 -30 -25 -74 -62 -99 -84 -25 -21 -55
-45 -66 -55 -11 -9 -90 -75 -175 -146 -85 -72 -163 -137 -174 -145 -10 -8 -23
-20 -30 -25 -14 -13 -122 -103 -155 -130 -13 -11 -32 -27 -41 -35 -8 -8 -49
-42 -90 -75 -41 -33 -88 -73 -106 -90 -18 -16 -44 -39 -60 -50 -15 -11 -35
-27 -43 -35 -9 -9 -52 -46 -96 -82 -106 -88 -182 -170 -242 -259 -51 -76 -120
-209 -127 -244 -2 -11 -10 -33 -16 -50 -14 -35 -19 -57 -26 -105 -2 -19 -7
-43 -10 -52 -3 -10 -7 -51 -9 -91 -2 -41 -5 -78 -6 -83 -1 -5 -1 -11 1 -14 1
-3 3 -32 5 -65 3 -32 7 -71 9 -85 3 -14 8 -38 11 -55 9 -51 67 -217 86 -252
11 -18 29 -50 40 -70 19 -35 47 -76 74 -112 77 -102 295 -284 367 -306 13 -4
25 -11 28 -15 13 -18 219 -84 305 -97 49 -8 297 -8 340 0 22 4 54 10 70 13 81
14 313 112 323 136 2 5 8 8 14 8 14 0 127 83 172 126 6 6 16 13 22 15 12 4 94
71 126 102 10 9 18 14 18 10 0 -5 4 -3 8 2 4 6 30 29 57 50 28 22 52 42 55 45
58 58 177 125 255 144 6 1 42 13 80 25 39 12 78 24 88 27 34 8 208 57 267 75
19 6 44 12 55 14 11 2 20 4 20 5 0 1 9 3 20 5 11 2 86 20 166 39 81 20 160 38
175 41 16 3 43 7 59 10 17 4 57 12 90 20 33 7 76 16 95 19 19 3 46 8 60 11 14
3 39 7 55 10 17 2 41 7 55 10 14 3 43 7 65 10 22 2 54 7 70 11 17 3 44 7 60 9
17 1 30 4 30 5 0 2 8 3 105 14 30 3 65 8 77 10 38 8 203 25 393 41 178 15 329
19 635 18 193 -1 370 -4 395 -6 25 -3 87 -8 139 -11 52 -4 104 -8 115 -11 12
-2 48 -7 81 -10 71 -7 110 -13 185 -25 30 -5 73 -12 95 -16 22 -3 72 -12 110
-20 39 -8 81 -17 95 -19 14 -2 40 -9 58 -14 18 -5 33 -10 35 -9 11 1 84 -16
92 -22 6 -4 17 -7 25 -7 8 0 35 -6 60 -13 25 -8 47 -14 50 -15 16 -3 128 -38
145 -45 11 -5 45 -16 75 -26 170 -52 512 -207 685 -310 148 -87 385 -248 405
-274 3 -3 37 -28 75 -55 39 -27 72 -52 75 -55 3 -3 41 -24 85 -46 165 -86 323
-115 468 -88 40 8 77 15 82 17 53 17 91 31 95 36 3 3 23 15 45 26 59 30 197
148 230 197 15 23 73 101 85 116 6 7 21 35 34 62 13 27 28 55 33 62 23 29 91
217 117 323 1 6 5 19 9 30 3 11 8 36 11 55 3 19 8 46 11 60 5 27 11 67 21 150
8 70 8 309 0 380 -15 127 -40 252 -72 363 -43 149 -74 224 -142 357 -58 111
-368 733 -417 835 -16 33 -33 63 -38 66 -5 3 -8 9 -8 12 0 4 -8 27 -19 52 -11
25 -19 48 -19 52 0 3 -3 9 -8 12 -8 6 -128 239 -128 251 0 3 -3 10 -7 15 -19
30 -76 145 -72 145 3 0 -4 14 -16 30 -12 17 -18 30 -13 30 4 0 2 4 -5 9 -7 4
-14 14 -16 22 -1 8 -162 336 -357 729 -196 393 -362 730 -370 748 -7 17 -17
32 -21 32 -5 0 -8 5 -8 11 0 7 -76 165 -169 353 -93 187 -170 346 -171 351 -1
6 -10 21 -19 35 -10 14 -24 41 -31 60 -7 19 -21 46 -31 60 -9 14 -17 27 -17
30 0 9 -36 85 -47 100 -7 8 -18 31 -25 50 -8 19 -27 55 -43 80 -31 46 -133
150 -148 150 -4 0 -14 6 -21 13 -51 50 -228 110 -356 121 -29 3 -56 7 -61 10
-4 3 -11 3 -14 0z"/>
</g>
</svg>
